<svg width="100" height="100" viewBox="0 0 100 100" fill="none" xmlns="http://www.w3.org/2000/svg">
  <rect width="100" height="100" rx="22" fill="#040B1C"/>
  <defs>
    <linearGradient id="g" x1="18" y1="14" x2="82" y2="88" gradientUnits="userSpaceOnUse">
      <stop offset="0" stop-color="#9FE3FF"/>
      <stop offset="0.55" stop-color="#4DA3FF"/>
      <stop offset="1" stop-color="#2E7BFF"/>
    </linearGradient>
  </defs>
  <path d="M50 12 L81 30 V68 L50 86 L19 68 V30 Z" stroke="url(#g)" stroke-width="5" stroke-linejoin="round"/>
  <g stroke="url(#g)" stroke-width="4" stroke-linecap="round">
    <line x1="50" y1="26" x2="50" y2="74"/>
    <line x1="29" y1="38" x2="71" y2="62"/>
    <line x1="71" y1="38" x2="29" y2="62"/>
    <g>
      <line x1="50" y1="35" x2="44" y2="29.5"/>
      <line x1="50" y1="35" x2="56" y2="29.5"/>
      <line x1="50" y1="65" x2="44" y2="70.5"/>
      <line x1="50" y1="65" x2="56" y2="70.5"/>
    </g>
    <g transform="rotate(60 50 50)">
      <line x1="50" y1="35" x2="44" y2="29.5"/>
      <line x1="50" y1="35" x2="56" y2="29.5"/>
      <line x1="50" y1="65" x2="44" y2="70.5"/>
      <line x1="50" y1="65" x2="56" y2="70.5"/>
    </g>
    <g transform="rotate(120 50 50)">
      <line x1="50" y1="35" x2="44" y2="29.5"/>
      <line x1="50" y1="35" x2="56" y2="29.5"/>
      <line x1="50" y1="65" x2="44" y2="70.5"/>
      <line x1="50" y1="65" x2="56" y2="70.5"/>
    </g>
  </g>
</svg>
